<svg width="417" height="148" viewBox="0 0 417 148" fill="none" xmlns="http://www.w3.org/2000/svg">
<rect x="0.5" y="0.5" width="416" height="147" rx="4.5" stroke="#9747FF" stroke-dasharray="10 5"/>
<rect x="19.5" y="19.5" width="378" height="50" rx="15.5" fill="white"/>
<rect x="19.5" y="19.5" width="378" height="50" rx="15.5" stroke="#F2F2F2"/>
<path d="M70.5 20V19.5H70H35C26.4396 19.5 19.5 26.4396 19.5 35V54C19.5 62.5604 26.4396 69.5 35 69.5H70H70.5V69V20Z" fill="#F2F2F2" stroke="#F2F2F2"/>
<path d="M44.1359 52.5955C42.2328 50.3326 38 44.8481 38 41.7675C38 38.0299 41.134 35 45 35C48.8646 35 52 38.0299 52 41.7675C52 44.8481 47.7344 50.3326 45.8641 52.5955C45.4156 53.1348 44.5844 53.1348 44.1359 52.5955ZM45 44.0234C46.287 44.0234 47.3333 43.0117 47.3333 41.7675C47.3333 40.5233 46.287 39.5117 45 39.5117C43.713 39.5117 42.6667 40.5233 42.6667 41.7675C42.6667 43.0117 43.713 44.0234 45 44.0234Z" fill="black"/>
<path d="M105.98 51V42.612L102.704 48.858H101.318L98.0416 42.612V51H95.5576V38.22H98.2216L102.002 45.492L105.818 38.22H108.464V51H105.98ZM110.144 48.21C110.144 47.598 110.312 47.064 110.648 46.608C110.996 46.14 111.476 45.78 112.088 45.528C112.7 45.276 113.402 45.15 114.194 45.15C114.59 45.15 114.992 45.18 115.4 45.24C115.808 45.3 116.162 45.396 116.462 45.528V45.024C116.462 44.424 116.282 43.962 115.922 43.638C115.574 43.314 115.052 43.152 114.356 43.152C113.84 43.152 113.348 43.242 112.88 43.422C112.412 43.602 111.92 43.866 111.404 44.214L110.63 42.63C111.254 42.222 111.89 41.916 112.538 41.712C113.198 41.508 113.888 41.406 114.608 41.406C115.952 41.406 116.996 41.742 117.74 42.414C118.496 43.086 118.874 44.046 118.874 45.294V48.3C118.874 48.552 118.916 48.732 119 48.84C119.096 48.948 119.246 49.014 119.45 49.038V51C119.234 51.036 119.036 51.066 118.856 51.09C118.688 51.114 118.544 51.126 118.424 51.126C117.944 51.126 117.578 51.018 117.326 50.802C117.086 50.586 116.936 50.322 116.876 50.01L116.822 49.524C116.414 50.052 115.904 50.46 115.292 50.748C114.68 51.036 114.056 51.18 113.42 51.18C112.796 51.18 112.232 51.054 111.728 50.802C111.236 50.538 110.846 50.184 110.558 49.74C110.282 49.284 110.144 48.774 110.144 48.21ZM116.012 48.696C116.144 48.552 116.252 48.408 116.336 48.264C116.42 48.12 116.462 47.988 116.462 47.868V46.914C116.174 46.794 115.862 46.704 115.526 46.644C115.19 46.572 114.872 46.536 114.572 46.536C113.948 46.536 113.432 46.674 113.024 46.95C112.628 47.214 112.43 47.568 112.43 48.012C112.43 48.252 112.496 48.48 112.628 48.696C112.76 48.912 112.952 49.086 113.204 49.218C113.456 49.35 113.756 49.416 114.104 49.416C114.464 49.416 114.818 49.35 115.166 49.218C115.514 49.074 115.796 48.9 116.012 48.696ZM126.744 43.656C126.012 43.656 125.358 43.8 124.782 44.088C124.206 44.364 123.792 44.766 123.54 45.294V51H121.128V41.568H123.342V43.584C123.678 42.936 124.104 42.426 124.62 42.054C125.136 41.682 125.682 41.478 126.258 41.442C126.39 41.442 126.492 41.442 126.564 41.442C126.636 41.442 126.696 41.448 126.744 41.46V43.656ZM131.563 51.18C130.759 51.18 129.991 51.048 129.259 50.784C128.527 50.52 127.897 50.13 127.369 49.614L128.233 48.048C128.797 48.504 129.349 48.84 129.889 49.056C130.441 49.272 130.969 49.38 131.473 49.38C131.941 49.38 132.313 49.296 132.589 49.128C132.877 48.96 133.021 48.708 133.021 48.372C133.021 48.144 132.943 47.97 132.787 47.85C132.631 47.718 132.403 47.604 132.103 47.508C131.815 47.412 131.461 47.304 131.041 47.184C130.345 46.956 129.763 46.734 129.295 46.518C128.827 46.302 128.473 46.032 128.233 45.708C128.005 45.372 127.891 44.946 127.891 44.43C127.891 43.806 128.047 43.272 128.359 42.828C128.683 42.372 129.127 42.018 129.691 41.766C130.267 41.514 130.939 41.388 131.707 41.388C132.379 41.388 133.015 41.496 133.615 41.712C134.215 41.916 134.761 42.252 135.253 42.72L134.281 44.25C133.801 43.878 133.345 43.608 132.913 43.44C132.481 43.26 132.043 43.17 131.599 43.17C131.347 43.17 131.107 43.2 130.879 43.26C130.663 43.32 130.483 43.422 130.339 43.566C130.207 43.698 130.141 43.89 130.141 44.142C130.141 44.37 130.201 44.55 130.321 44.682C130.453 44.802 130.645 44.91 130.897 45.006C131.161 45.102 131.479 45.21 131.851 45.33C132.607 45.546 133.243 45.768 133.759 45.996C134.287 46.224 134.683 46.506 134.947 46.842C135.211 47.166 135.343 47.616 135.343 48.192C135.343 49.128 135.001 49.86 134.317 50.388C133.633 50.916 132.715 51.18 131.563 51.18ZM141.358 51.18C140.602 51.18 139.918 51.054 139.306 50.802C138.694 50.538 138.172 50.184 137.74 49.74C137.308 49.284 136.972 48.768 136.732 48.192C136.504 47.604 136.39 46.986 136.39 46.338C136.39 45.438 136.588 44.616 136.984 43.872C137.392 43.128 137.968 42.534 138.712 42.09C139.468 41.634 140.356 41.406 141.376 41.406C142.408 41.406 143.29 41.634 144.022 42.09C144.754 42.534 145.312 43.128 145.696 43.872C146.092 44.604 146.29 45.396 146.29 46.248C146.29 46.392 146.284 46.542 146.272 46.698C146.26 46.842 146.248 46.962 146.236 47.058H138.946C138.994 47.538 139.132 47.958 139.36 48.318C139.6 48.678 139.9 48.954 140.26 49.146C140.632 49.326 141.028 49.416 141.448 49.416C141.928 49.416 142.378 49.302 142.798 49.074C143.23 48.834 143.524 48.522 143.68 48.138L145.75 48.714C145.522 49.194 145.192 49.62 144.76 49.992C144.34 50.364 143.842 50.658 143.266 50.874C142.69 51.078 142.054 51.18 141.358 51.18ZM138.892 45.528H143.824C143.776 45.048 143.638 44.634 143.41 44.286C143.194 43.926 142.906 43.65 142.546 43.458C142.186 43.254 141.784 43.152 141.34 43.152C140.908 43.152 140.512 43.254 140.152 43.458C139.804 43.65 139.516 43.926 139.288 44.286C139.072 44.634 138.94 45.048 138.892 45.528ZM147.759 51V41.568H150.171V51H147.759ZM147.759 40.254V37.86H150.171V40.254H147.759ZM152.329 37.86H154.741V47.976C154.741 48.408 154.813 48.702 154.957 48.858C155.101 49.002 155.299 49.074 155.551 49.074C155.743 49.074 155.941 49.05 156.145 49.002C156.349 48.954 156.529 48.894 156.685 48.822L157.009 50.658C156.685 50.814 156.307 50.934 155.875 51.018C155.443 51.102 155.053 51.144 154.705 51.144C153.949 51.144 153.361 50.946 152.941 50.55C152.533 50.142 152.329 49.566 152.329 48.822V37.86ZM158.042 37.86H160.454V47.976C160.454 48.408 160.526 48.702 160.67 48.858C160.814 49.002 161.012 49.074 161.264 49.074C161.456 49.074 161.654 49.05 161.858 49.002C162.062 48.954 162.242 48.894 162.398 48.822L162.722 50.658C162.398 50.814 162.02 50.934 161.588 51.018C161.156 51.102 160.766 51.144 160.418 51.144C159.662 51.144 159.074 50.946 158.654 50.55C158.246 50.142 158.042 49.566 158.042 48.822V37.86ZM168.147 51.18C167.391 51.18 166.707 51.054 166.095 50.802C165.483 50.538 164.961 50.184 164.529 49.74C164.097 49.284 163.761 48.768 163.521 48.192C163.293 47.604 163.179 46.986 163.179 46.338C163.179 45.438 163.377 44.616 163.773 43.872C164.181 43.128 164.757 42.534 165.501 42.09C166.257 41.634 167.145 41.406 168.165 41.406C169.197 41.406 170.079 41.634 170.811 42.09C171.543 42.534 172.101 43.128 172.485 43.872C172.881 44.604 173.079 45.396 173.079 46.248C173.079 46.392 173.073 46.542 173.061 46.698C173.049 46.842 173.037 46.962 173.025 47.058H165.735C165.783 47.538 165.921 47.958 166.149 48.318C166.389 48.678 166.689 48.954 167.049 49.146C167.421 49.326 167.817 49.416 168.237 49.416C168.717 49.416 169.167 49.302 169.587 49.074C170.019 48.834 170.313 48.522 170.469 48.138L172.539 48.714C172.311 49.194 171.981 49.62 171.549 49.992C171.129 50.364 170.631 50.658 170.055 50.874C169.479 51.078 168.843 51.18 168.147 51.18ZM165.681 45.528H170.613C170.565 45.048 170.427 44.634 170.199 44.286C169.983 43.926 169.695 43.65 169.335 43.458C168.975 43.254 168.573 43.152 168.129 43.152C167.697 43.152 167.301 43.254 166.941 43.458C166.593 43.65 166.305 43.926 166.077 44.286C165.861 44.634 165.729 45.048 165.681 45.528ZM174.764 53.07L175.25 50.928H174.494V48.408H176.582V50.928L175.844 53.07H174.764ZM183.29 51V38.22H191.876V40.398H185.774V43.692H190.85V45.708H185.774V51H183.29ZM198.533 43.656C197.801 43.656 197.147 43.8 196.571 44.088C195.995 44.364 195.581 44.766 195.329 45.294V51H192.917V41.568H195.131V43.584C195.467 42.936 195.893 42.426 196.409 42.054C196.925 41.682 197.471 41.478 198.047 41.442C198.179 41.442 198.281 41.442 198.353 41.442C198.425 41.442 198.485 41.448 198.533 41.46V43.656ZM199.178 48.21C199.178 47.598 199.346 47.064 199.682 46.608C200.03 46.14 200.51 45.78 201.122 45.528C201.734 45.276 202.436 45.15 203.228 45.15C203.624 45.15 204.026 45.18 204.434 45.24C204.842 45.3 205.196 45.396 205.496 45.528V45.024C205.496 44.424 205.316 43.962 204.956 43.638C204.608 43.314 204.086 43.152 203.39 43.152C202.874 43.152 202.382 43.242 201.914 43.422C201.446 43.602 200.954 43.866 200.438 44.214L199.664 42.63C200.288 42.222 200.924 41.916 201.572 41.712C202.232 41.508 202.922 41.406 203.642 41.406C204.986 41.406 206.03 41.742 206.774 42.414C207.53 43.086 207.908 44.046 207.908 45.294V48.3C207.908 48.552 207.95 48.732 208.034 48.84C208.13 48.948 208.28 49.014 208.484 49.038V51C208.268 51.036 208.07 51.066 207.89 51.09C207.722 51.114 207.578 51.126 207.458 51.126C206.978 51.126 206.612 51.018 206.36 50.802C206.12 50.586 205.97 50.322 205.91 50.01L205.856 49.524C205.448 50.052 204.938 50.46 204.326 50.748C203.714 51.036 203.09 51.18 202.454 51.18C201.83 51.18 201.266 51.054 200.762 50.802C200.27 50.538 199.88 50.184 199.592 49.74C199.316 49.284 199.178 48.774 199.178 48.21ZM205.046 48.696C205.178 48.552 205.286 48.408 205.37 48.264C205.454 48.12 205.496 47.988 205.496 47.868V46.914C205.208 46.794 204.896 46.704 204.56 46.644C204.224 46.572 203.906 46.536 203.606 46.536C202.982 46.536 202.466 46.674 202.058 46.95C201.662 47.214 201.464 47.568 201.464 48.012C201.464 48.252 201.53 48.48 201.662 48.696C201.794 48.912 201.986 49.086 202.238 49.218C202.49 49.35 202.79 49.416 203.138 49.416C203.498 49.416 203.852 49.35 204.2 49.218C204.548 49.074 204.83 48.9 205.046 48.696ZM218.927 51H216.515V45.708C216.515 44.952 216.383 44.4 216.119 44.052C215.855 43.704 215.489 43.53 215.021 43.53C214.697 43.53 214.367 43.614 214.031 43.782C213.707 43.95 213.413 44.184 213.149 44.484C212.885 44.772 212.693 45.108 212.573 45.492V51H210.161V41.568H212.339V43.314C212.579 42.906 212.885 42.564 213.257 42.288C213.629 42 214.055 41.784 214.535 41.64C215.027 41.484 215.543 41.406 216.083 41.406C216.671 41.406 217.151 41.514 217.523 41.73C217.907 41.934 218.195 42.216 218.387 42.576C218.591 42.924 218.729 43.32 218.801 43.764C218.885 44.208 218.927 44.658 218.927 45.114V51ZM225.417 51.18C224.649 51.18 223.959 51.054 223.347 50.802C222.735 50.538 222.213 50.178 221.781 49.722C221.349 49.254 221.013 48.726 220.773 48.138C220.545 47.55 220.431 46.932 220.431 46.284C220.431 45.396 220.629 44.586 221.025 43.854C221.433 43.11 222.009 42.516 222.753 42.072C223.497 41.628 224.379 41.406 225.399 41.406C226.419 41.406 227.295 41.628 228.027 42.072C228.759 42.516 229.305 43.098 229.665 43.818L227.307 44.538C227.103 44.19 226.833 43.926 226.497 43.746C226.161 43.554 225.789 43.458 225.381 43.458C224.925 43.458 224.505 43.578 224.121 43.818C223.749 44.046 223.455 44.376 223.239 44.808C223.023 45.228 222.915 45.72 222.915 46.284C222.915 46.836 223.023 47.328 223.239 47.76C223.467 48.18 223.767 48.516 224.139 48.768C224.511 49.008 224.925 49.128 225.381 49.128C225.669 49.128 225.939 49.08 226.191 48.984C226.455 48.888 226.689 48.756 226.893 48.588C227.097 48.42 227.247 48.228 227.343 48.012L229.701 48.732C229.485 49.2 229.167 49.62 228.747 49.992C228.339 50.364 227.853 50.658 227.289 50.874C226.737 51.078 226.113 51.18 225.417 51.18ZM235.471 51.18C234.715 51.18 234.031 51.054 233.419 50.802C232.807 50.538 232.285 50.184 231.853 49.74C231.421 49.284 231.085 48.768 230.845 48.192C230.617 47.604 230.503 46.986 230.503 46.338C230.503 45.438 230.701 44.616 231.097 43.872C231.505 43.128 232.081 42.534 232.825 42.09C233.581 41.634 234.469 41.406 235.489 41.406C236.521 41.406 237.403 41.634 238.135 42.09C238.867 42.534 239.425 43.128 239.809 43.872C240.205 44.604 240.403 45.396 240.403 46.248C240.403 46.392 240.397 46.542 240.385 46.698C240.373 46.842 240.361 46.962 240.349 47.058H233.059C233.107 47.538 233.245 47.958 233.473 48.318C233.713 48.678 234.013 48.954 234.373 49.146C234.745 49.326 235.141 49.416 235.561 49.416C236.041 49.416 236.491 49.302 236.911 49.074C237.343 48.834 237.637 48.522 237.793 48.138L239.863 48.714C239.635 49.194 239.305 49.62 238.873 49.992C238.453 50.364 237.955 50.658 237.379 50.874C236.803 51.078 236.167 51.18 235.471 51.18ZM233.005 45.528H237.937C237.889 45.048 237.751 44.634 237.523 44.286C237.307 43.926 237.019 43.65 236.659 43.458C236.299 43.254 235.897 43.152 235.453 43.152C235.021 43.152 234.625 43.254 234.265 43.458C233.917 43.65 233.629 43.926 233.401 44.286C233.185 44.634 233.053 45.048 233.005 45.528Z" fill="black"/>
<path d="M265 19.5H264.5V20V69V69.5H265H382C390.56 69.5 397.5 62.5604 397.5 54V35C397.5 26.4396 390.56 19.5 382 19.5H265Z" fill="#0065FC"/>
<path d="M265 19.5H264.5V20V69V69.5H265H382C390.56 69.5 397.5 62.5604 397.5 54V35C397.5 26.4396 390.56 19.5 382 19.5H265Z" stroke="#0065FC"/>
<path d="M282.419 51V38.22H288.071C288.659 38.22 289.199 38.34 289.691 38.58C290.195 38.82 290.627 39.144 290.987 39.552C291.359 39.96 291.641 40.416 291.833 40.92C292.037 41.424 292.139 41.94 292.139 42.468C292.139 43.008 292.043 43.53 291.851 44.034C291.671 44.526 291.407 44.958 291.059 45.33C290.711 45.702 290.303 45.99 289.835 46.194L292.751 51H290.015L287.387 46.716H284.903V51H282.419ZM284.903 44.538H288.017C288.329 44.538 288.605 44.448 288.845 44.268C289.085 44.076 289.277 43.824 289.421 43.512C289.565 43.2 289.637 42.852 289.637 42.468C289.637 42.06 289.553 41.706 289.385 41.406C289.217 41.094 289.001 40.848 288.737 40.668C288.485 40.488 288.209 40.398 287.909 40.398H284.903V44.538ZM298.213 51.18C297.457 51.18 296.773 51.054 296.161 50.802C295.549 50.538 295.027 50.184 294.595 49.74C294.163 49.284 293.827 48.768 293.587 48.192C293.359 47.604 293.245 46.986 293.245 46.338C293.245 45.438 293.443 44.616 293.839 43.872C294.247 43.128 294.823 42.534 295.567 42.09C296.323 41.634 297.211 41.406 298.231 41.406C299.263 41.406 300.145 41.634 300.877 42.09C301.609 42.534 302.167 43.128 302.551 43.872C302.947 44.604 303.145 45.396 303.145 46.248C303.145 46.392 303.139 46.542 303.127 46.698C303.115 46.842 303.103 46.962 303.091 47.058H295.801C295.849 47.538 295.987 47.958 296.215 48.318C296.455 48.678 296.755 48.954 297.115 49.146C297.487 49.326 297.883 49.416 298.303 49.416C298.783 49.416 299.233 49.302 299.653 49.074C300.085 48.834 300.379 48.522 300.535 48.138L302.605 48.714C302.377 49.194 302.047 49.62 301.615 49.992C301.195 50.364 300.697 50.658 300.121 50.874C299.545 51.078 298.909 51.18 298.213 51.18ZM295.747 45.528H300.679C300.631 45.048 300.493 44.634 300.265 44.286C300.049 43.926 299.761 43.65 299.401 43.458C299.041 43.254 298.639 43.152 298.195 43.152C297.763 43.152 297.367 43.254 297.007 43.458C296.659 43.65 296.371 43.926 296.143 44.286C295.927 44.634 295.795 45.048 295.747 45.528ZM309.007 51.18C308.239 51.18 307.549 51.054 306.937 50.802C306.325 50.538 305.803 50.178 305.371 49.722C304.939 49.254 304.603 48.726 304.363 48.138C304.135 47.55 304.021 46.932 304.021 46.284C304.021 45.396 304.219 44.586 304.615 43.854C305.023 43.11 305.599 42.516 306.343 42.072C307.087 41.628 307.969 41.406 308.989 41.406C310.009 41.406 310.885 41.628 311.617 42.072C312.349 42.516 312.895 43.098 313.255 43.818L310.897 44.538C310.693 44.19 310.423 43.926 310.087 43.746C309.751 43.554 309.379 43.458 308.971 43.458C308.515 43.458 308.095 43.578 307.711 43.818C307.339 44.046 307.045 44.376 306.829 44.808C306.613 45.228 306.505 45.72 306.505 46.284C306.505 46.836 306.613 47.328 306.829 47.76C307.057 48.18 307.357 48.516 307.729 48.768C308.101 49.008 308.515 49.128 308.971 49.128C309.259 49.128 309.529 49.08 309.781 48.984C310.045 48.888 310.279 48.756 310.483 48.588C310.687 48.42 310.837 48.228 310.933 48.012L313.291 48.732C313.075 49.2 312.757 49.62 312.337 49.992C311.929 50.364 311.443 50.658 310.879 50.874C310.327 51.078 309.703 51.18 309.007 51.18ZM323.541 51H321.129V45.708C321.129 44.976 320.985 44.43 320.697 44.07C320.421 43.71 320.037 43.53 319.545 43.53C319.257 43.53 318.951 43.614 318.627 43.782C318.303 43.95 318.009 44.184 317.745 44.484C317.493 44.772 317.307 45.108 317.187 45.492V51H314.775V37.86H317.187V43.314C317.535 42.714 318.009 42.246 318.609 41.91C319.209 41.574 319.863 41.406 320.571 41.406C321.183 41.406 321.681 41.514 322.065 41.73C322.449 41.934 322.749 42.216 322.965 42.576C323.181 42.924 323.331 43.32 323.415 43.764C323.499 44.196 323.541 44.646 323.541 45.114V51ZM330.012 51.18C329.256 51.18 328.572 51.054 327.96 50.802C327.348 50.538 326.826 50.184 326.394 49.74C325.962 49.284 325.626 48.768 325.386 48.192C325.158 47.604 325.044 46.986 325.044 46.338C325.044 45.438 325.242 44.616 325.638 43.872C326.046 43.128 326.622 42.534 327.366 42.09C328.122 41.634 329.01 41.406 330.03 41.406C331.062 41.406 331.944 41.634 332.676 42.09C333.408 42.534 333.966 43.128 334.35 43.872C334.746 44.604 334.944 45.396 334.944 46.248C334.944 46.392 334.938 46.542 334.926 46.698C334.914 46.842 334.902 46.962 334.89 47.058H327.6C327.648 47.538 327.786 47.958 328.014 48.318C328.254 48.678 328.554 48.954 328.914 49.146C329.286 49.326 329.682 49.416 330.102 49.416C330.582 49.416 331.032 49.302 331.452 49.074C331.884 48.834 332.178 48.522 332.334 48.138L334.404 48.714C334.176 49.194 333.846 49.62 333.414 49.992C332.994 50.364 332.496 50.658 331.92 50.874C331.344 51.078 330.708 51.18 330.012 51.18ZM327.546 45.528H332.478C332.43 45.048 332.292 44.634 332.064 44.286C331.848 43.926 331.56 43.65 331.2 43.458C330.84 43.254 330.438 43.152 329.994 43.152C329.562 43.152 329.166 43.254 328.806 43.458C328.458 43.65 328.17 43.926 327.942 44.286C327.726 44.634 327.594 45.048 327.546 45.528ZM342.029 43.656C341.297 43.656 340.643 43.8 340.067 44.088C339.491 44.364 339.077 44.766 338.825 45.294V51H336.413V41.568H338.627V43.584C338.963 42.936 339.389 42.426 339.905 42.054C340.421 41.682 340.967 41.478 341.543 41.442C341.675 41.442 341.777 41.442 341.849 41.442C341.921 41.442 341.981 41.448 342.029 41.46V43.656ZM347.643 51.18C346.875 51.18 346.185 51.054 345.573 50.802C344.961 50.538 344.439 50.178 344.007 49.722C343.575 49.254 343.239 48.726 342.999 48.138C342.771 47.55 342.657 46.932 342.657 46.284C342.657 45.396 342.855 44.586 343.251 43.854C343.659 43.11 344.235 42.516 344.979 42.072C345.723 41.628 346.605 41.406 347.625 41.406C348.645 41.406 349.521 41.628 350.253 42.072C350.985 42.516 351.531 43.098 351.891 43.818L349.533 44.538C349.329 44.19 349.059 43.926 348.723 43.746C348.387 43.554 348.015 43.458 347.607 43.458C347.151 43.458 346.731 43.578 346.347 43.818C345.975 44.046 345.681 44.376 345.465 44.808C345.249 45.228 345.141 45.72 345.141 46.284C345.141 46.836 345.249 47.328 345.465 47.76C345.693 48.18 345.993 48.516 346.365 48.768C346.737 49.008 347.151 49.128 347.607 49.128C347.895 49.128 348.165 49.08 348.417 48.984C348.681 48.888 348.915 48.756 349.119 48.588C349.323 48.42 349.473 48.228 349.569 48.012L351.927 48.732C351.711 49.2 351.393 49.62 350.973 49.992C350.565 50.364 350.079 50.658 349.515 50.874C348.963 51.078 348.339 51.18 347.643 51.18ZM362.177 51H359.765V45.708C359.765 44.976 359.621 44.43 359.333 44.07C359.057 43.71 358.673 43.53 358.181 43.53C357.893 43.53 357.587 43.614 357.263 43.782C356.939 43.95 356.645 44.184 356.381 44.484C356.129 44.772 355.943 45.108 355.823 45.492V51H353.411V37.86H355.823V43.314C356.171 42.714 356.645 42.246 357.245 41.91C357.845 41.574 358.499 41.406 359.207 41.406C359.819 41.406 360.317 41.514 360.701 41.73C361.085 41.934 361.385 42.216 361.601 42.576C361.817 42.924 361.967 43.32 362.051 43.764C362.135 44.196 362.177 44.646 362.177 45.114V51ZM368.649 51.18C367.893 51.18 367.209 51.054 366.597 50.802C365.985 50.538 365.463 50.184 365.031 49.74C364.599 49.284 364.263 48.768 364.023 48.192C363.795 47.604 363.681 46.986 363.681 46.338C363.681 45.438 363.879 44.616 364.275 43.872C364.683 43.128 365.259 42.534 366.003 42.09C366.759 41.634 367.647 41.406 368.667 41.406C369.699 41.406 370.581 41.634 371.313 42.09C372.045 42.534 372.603 43.128 372.987 43.872C373.383 44.604 373.581 45.396 373.581 46.248C373.581 46.392 373.575 46.542 373.563 46.698C373.551 46.842 373.539 46.962 373.527 47.058H366.237C366.285 47.538 366.423 47.958 366.651 48.318C366.891 48.678 367.191 48.954 367.551 49.146C367.923 49.326 368.319 49.416 368.739 49.416C369.219 49.416 369.669 49.302 370.089 49.074C370.521 48.834 370.815 48.522 370.971 48.138L373.041 48.714C372.813 49.194 372.483 49.62 372.051 49.992C371.631 50.364 371.133 50.658 370.557 50.874C369.981 51.078 369.345 51.18 368.649 51.18ZM366.183 45.528H371.115C371.067 45.048 370.929 44.634 370.701 44.286C370.485 43.926 370.197 43.65 369.837 43.458C369.477 43.254 369.075 43.152 368.631 43.152C368.199 43.152 367.803 43.254 367.443 43.458C367.095 43.65 366.807 43.926 366.579 44.286C366.363 44.634 366.231 45.048 366.183 45.528ZM380.666 43.656C379.934 43.656 379.28 43.8 378.704 44.088C378.128 44.364 377.714 44.766 377.462 45.294V51H375.05V41.568H377.264V43.584C377.6 42.936 378.026 42.426 378.542 42.054C379.058 41.682 379.604 41.478 380.18 41.442C380.312 41.442 380.414 41.442 380.486 41.442C380.558 41.442 380.618 41.448 380.666 41.46V43.656Z" fill="white"/>
<rect x="19.5" y="78.5" width="378" height="50" rx="15.5" fill="white"/>
<rect x="19.5" y="78.5" width="378" height="50" rx="15.5" stroke="#F2F2F2"/>
<rect x="347.5" y="78.5" width="50" height="50" rx="15.5" fill="#0065FC"/>
<rect x="347.5" y="78.5" width="50" height="50" rx="15.5" stroke="#0065FC"/>
<path d="M380.769 109.698L377.458 106.388C377.309 106.238 377.106 106.155 376.894 106.155H376.352C377.269 104.983 377.814 103.509 377.814 101.906C377.814 98.0909 374.722 95 370.907 95C367.091 95 364 98.0909 364 101.906C364 105.72 367.091 108.811 370.907 108.811C372.511 108.811 373.985 108.267 375.157 107.35V107.892C375.157 108.104 375.24 108.307 375.39 108.456L378.7 111.766C379.012 112.078 379.517 112.078 379.826 111.766L380.765 110.826C381.078 110.514 381.078 110.01 380.769 109.698ZM370.907 106.155C368.559 106.155 366.656 104.256 366.656 101.906C366.656 99.5583 368.556 97.656 370.907 97.656C373.254 97.656 375.157 99.555 375.157 101.906C375.157 104.253 373.258 106.155 370.907 106.155Z" fill="white"/>
<path d="M105.98 110V101.612L102.704 107.858H101.318L98.0416 101.612V110H95.5576V97.22H98.2216L102.002 104.492L105.818 97.22H108.464V110H105.98ZM110.144 107.21C110.144 106.598 110.312 106.064 110.648 105.608C110.996 105.14 111.476 104.78 112.088 104.528C112.7 104.276 113.402 104.15 114.194 104.15C114.59 104.15 114.992 104.18 115.4 104.24C115.808 104.3 116.162 104.396 116.462 104.528V104.024C116.462 103.424 116.282 102.962 115.922 102.638C115.574 102.314 115.052 102.152 114.356 102.152C113.84 102.152 113.348 102.242 112.88 102.422C112.412 102.602 111.92 102.866 111.404 103.214L110.63 101.63C111.254 101.222 111.89 100.916 112.538 100.712C113.198 100.508 113.888 100.406 114.608 100.406C115.952 100.406 116.996 100.742 117.74 101.414C118.496 102.086 118.874 103.046 118.874 104.294V107.3C118.874 107.552 118.916 107.732 119 107.84C119.096 107.948 119.246 108.014 119.45 108.038V110C119.234 110.036 119.036 110.066 118.856 110.09C118.688 110.114 118.544 110.126 118.424 110.126C117.944 110.126 117.578 110.018 117.326 109.802C117.086 109.586 116.936 109.322 116.876 109.01L116.822 108.524C116.414 109.052 115.904 109.46 115.292 109.748C114.68 110.036 114.056 110.18 113.42 110.18C112.796 110.18 112.232 110.054 111.728 109.802C111.236 109.538 110.846 109.184 110.558 108.74C110.282 108.284 110.144 107.774 110.144 107.21ZM116.012 107.696C116.144 107.552 116.252 107.408 116.336 107.264C116.42 107.12 116.462 106.988 116.462 106.868V105.914C116.174 105.794 115.862 105.704 115.526 105.644C115.19 105.572 114.872 105.536 114.572 105.536C113.948 105.536 113.432 105.674 113.024 105.95C112.628 106.214 112.43 106.568 112.43 107.012C112.43 107.252 112.496 107.48 112.628 107.696C112.76 107.912 112.952 108.086 113.204 108.218C113.456 108.35 113.756 108.416 114.104 108.416C114.464 108.416 114.818 108.35 115.166 108.218C115.514 108.074 115.796 107.9 116.012 107.696ZM126.744 102.656C126.012 102.656 125.358 102.8 124.782 103.088C124.206 103.364 123.792 103.766 123.54 104.294V110H121.128V100.568H123.342V102.584C123.678 101.936 124.104 101.426 124.62 101.054C125.136 100.682 125.682 100.478 126.258 100.442C126.39 100.442 126.492 100.442 126.564 100.442C126.636 100.442 126.696 100.448 126.744 100.46V102.656ZM131.563 110.18C130.759 110.18 129.991 110.048 129.259 109.784C128.527 109.52 127.897 109.13 127.369 108.614L128.233 107.048C128.797 107.504 129.349 107.84 129.889 108.056C130.441 108.272 130.969 108.38 131.473 108.38C131.941 108.38 132.313 108.296 132.589 108.128C132.877 107.96 133.021 107.708 133.021 107.372C133.021 107.144 132.943 106.97 132.787 106.85C132.631 106.718 132.403 106.604 132.103 106.508C131.815 106.412 131.461 106.304 131.041 106.184C130.345 105.956 129.763 105.734 129.295 105.518C128.827 105.302 128.473 105.032 128.233 104.708C128.005 104.372 127.891 103.946 127.891 103.43C127.891 102.806 128.047 102.272 128.359 101.828C128.683 101.372 129.127 101.018 129.691 100.766C130.267 100.514 130.939 100.388 131.707 100.388C132.379 100.388 133.015 100.496 133.615 100.712C134.215 100.916 134.761 101.252 135.253 101.72L134.281 103.25C133.801 102.878 133.345 102.608 132.913 102.44C132.481 102.26 132.043 102.17 131.599 102.17C131.347 102.17 131.107 102.2 130.879 102.26C130.663 102.32 130.483 102.422 130.339 102.566C130.207 102.698 130.141 102.89 130.141 103.142C130.141 103.37 130.201 103.55 130.321 103.682C130.453 103.802 130.645 103.91 130.897 104.006C131.161 104.102 131.479 104.21 131.851 104.33C132.607 104.546 133.243 104.768 133.759 104.996C134.287 105.224 134.683 105.506 134.947 105.842C135.211 106.166 135.343 106.616 135.343 107.192C135.343 108.128 135.001 108.86 134.317 109.388C133.633 109.916 132.715 110.18 131.563 110.18ZM141.358 110.18C140.602 110.18 139.918 110.054 139.306 109.802C138.694 109.538 138.172 109.184 137.74 108.74C137.308 108.284 136.972 107.768 136.732 107.192C136.504 106.604 136.39 105.986 136.39 105.338C136.39 104.438 136.588 103.616 136.984 102.872C137.392 102.128 137.968 101.534 138.712 101.09C139.468 100.634 140.356 100.406 141.376 100.406C142.408 100.406 143.29 100.634 144.022 101.09C144.754 101.534 145.312 102.128 145.696 102.872C146.092 103.604 146.29 104.396 146.29 105.248C146.29 105.392 146.284 105.542 146.272 105.698C146.26 105.842 146.248 105.962 146.236 106.058H138.946C138.994 106.538 139.132 106.958 139.36 107.318C139.6 107.678 139.9 107.954 140.26 108.146C140.632 108.326 141.028 108.416 141.448 108.416C141.928 108.416 142.378 108.302 142.798 108.074C143.23 107.834 143.524 107.522 143.68 107.138L145.75 107.714C145.522 108.194 145.192 108.62 144.76 108.992C144.34 109.364 143.842 109.658 143.266 109.874C142.69 110.078 142.054 110.18 141.358 110.18ZM138.892 104.528H143.824C143.776 104.048 143.638 103.634 143.41 103.286C143.194 102.926 142.906 102.65 142.546 102.458C142.186 102.254 141.784 102.152 141.34 102.152C140.908 102.152 140.512 102.254 140.152 102.458C139.804 102.65 139.516 102.926 139.288 103.286C139.072 103.634 138.94 104.048 138.892 104.528ZM147.759 110V100.568H150.171V110H147.759ZM147.759 99.254V96.86H150.171V99.254H147.759ZM152.329 96.86H154.741V106.976C154.741 107.408 154.813 107.702 154.957 107.858C155.101 108.002 155.299 108.074 155.551 108.074C155.743 108.074 155.941 108.05 156.145 108.002C156.349 107.954 156.529 107.894 156.685 107.822L157.009 109.658C156.685 109.814 156.307 109.934 155.875 110.018C155.443 110.102 155.053 110.144 154.705 110.144C153.949 110.144 153.361 109.946 152.941 109.55C152.533 109.142 152.329 108.566 152.329 107.822V96.86ZM158.042 96.86H160.454V106.976C160.454 107.408 160.526 107.702 160.67 107.858C160.814 108.002 161.012 108.074 161.264 108.074C161.456 108.074 161.654 108.05 161.858 108.002C162.062 107.954 162.242 107.894 162.398 107.822L162.722 109.658C162.398 109.814 162.02 109.934 161.588 110.018C161.156 110.102 160.766 110.144 160.418 110.144C159.662 110.144 159.074 109.946 158.654 109.55C158.246 109.142 158.042 108.566 158.042 107.822V96.86ZM168.147 110.18C167.391 110.18 166.707 110.054 166.095 109.802C165.483 109.538 164.961 109.184 164.529 108.74C164.097 108.284 163.761 107.768 163.521 107.192C163.293 106.604 163.179 105.986 163.179 105.338C163.179 104.438 163.377 103.616 163.773 102.872C164.181 102.128 164.757 101.534 165.501 101.09C166.257 100.634 167.145 100.406 168.165 100.406C169.197 100.406 170.079 100.634 170.811 101.09C171.543 101.534 172.101 102.128 172.485 102.872C172.881 103.604 173.079 104.396 173.079 105.248C173.079 105.392 173.073 105.542 173.061 105.698C173.049 105.842 173.037 105.962 173.025 106.058H165.735C165.783 106.538 165.921 106.958 166.149 107.318C166.389 107.678 166.689 107.954 167.049 108.146C167.421 108.326 167.817 108.416 168.237 108.416C168.717 108.416 169.167 108.302 169.587 108.074C170.019 107.834 170.313 107.522 170.469 107.138L172.539 107.714C172.311 108.194 171.981 108.62 171.549 108.992C171.129 109.364 170.631 109.658 170.055 109.874C169.479 110.078 168.843 110.18 168.147 110.18ZM165.681 104.528H170.613C170.565 104.048 170.427 103.634 170.199 103.286C169.983 102.926 169.695 102.65 169.335 102.458C168.975 102.254 168.573 102.152 168.129 102.152C167.697 102.152 167.301 102.254 166.941 102.458C166.593 102.65 166.305 102.926 166.077 103.286C165.861 103.634 165.729 104.048 165.681 104.528ZM174.764 112.07L175.25 109.928H174.494V107.408H176.582V109.928L175.844 112.07H174.764ZM183.29 110V97.22H191.876V99.398H185.774V102.692H190.85V104.708H185.774V110H183.29ZM198.533 102.656C197.801 102.656 197.147 102.8 196.571 103.088C195.995 103.364 195.581 103.766 195.329 104.294V110H192.917V100.568H195.131V102.584C195.467 101.936 195.893 101.426 196.409 101.054C196.925 100.682 197.471 100.478 198.047 100.442C198.179 100.442 198.281 100.442 198.353 100.442C198.425 100.442 198.485 100.448 198.533 100.46V102.656ZM199.178 107.21C199.178 106.598 199.346 106.064 199.682 105.608C200.03 105.14 200.51 104.78 201.122 104.528C201.734 104.276 202.436 104.15 203.228 104.15C203.624 104.15 204.026 104.18 204.434 104.24C204.842 104.3 205.196 104.396 205.496 104.528V104.024C205.496 103.424 205.316 102.962 204.956 102.638C204.608 102.314 204.086 102.152 203.39 102.152C202.874 102.152 202.382 102.242 201.914 102.422C201.446 102.602 200.954 102.866 200.438 103.214L199.664 101.63C200.288 101.222 200.924 100.916 201.572 100.712C202.232 100.508 202.922 100.406 203.642 100.406C204.986 100.406 206.03 100.742 206.774 101.414C207.53 102.086 207.908 103.046 207.908 104.294V107.3C207.908 107.552 207.95 107.732 208.034 107.84C208.13 107.948 208.28 108.014 208.484 108.038V110C208.268 110.036 208.07 110.066 207.89 110.09C207.722 110.114 207.578 110.126 207.458 110.126C206.978 110.126 206.612 110.018 206.36 109.802C206.12 109.586 205.97 109.322 205.91 109.01L205.856 108.524C205.448 109.052 204.938 109.46 204.326 109.748C203.714 110.036 203.09 110.18 202.454 110.18C201.83 110.18 201.266 110.054 200.762 109.802C200.27 109.538 199.88 109.184 199.592 108.74C199.316 108.284 199.178 107.774 199.178 107.21ZM205.046 107.696C205.178 107.552 205.286 107.408 205.37 107.264C205.454 107.12 205.496 106.988 205.496 106.868V105.914C205.208 105.794 204.896 105.704 204.56 105.644C204.224 105.572 203.906 105.536 203.606 105.536C202.982 105.536 202.466 105.674 202.058 105.95C201.662 106.214 201.464 106.568 201.464 107.012C201.464 107.252 201.53 107.48 201.662 107.696C201.794 107.912 201.986 108.086 202.238 108.218C202.49 108.35 202.79 108.416 203.138 108.416C203.498 108.416 203.852 108.35 204.2 108.218C204.548 108.074 204.83 107.9 205.046 107.696ZM218.927 110H216.515V104.708C216.515 103.952 216.383 103.4 216.119 103.052C215.855 102.704 215.489 102.53 215.021 102.53C214.697 102.53 214.367 102.614 214.031 102.782C213.707 102.95 213.413 103.184 213.149 103.484C212.885 103.772 212.693 104.108 212.573 104.492V110H210.161V100.568H212.339V102.314C212.579 101.906 212.885 101.564 213.257 101.288C213.629 101 214.055 100.784 214.535 100.64C215.027 100.484 215.543 100.406 216.083 100.406C216.671 100.406 217.151 100.514 217.523 100.73C217.907 100.934 218.195 101.216 218.387 101.576C218.591 101.924 218.729 102.32 218.801 102.764C218.885 103.208 218.927 103.658 218.927 104.114V110ZM225.417 110.18C224.649 110.18 223.959 110.054 223.347 109.802C222.735 109.538 222.213 109.178 221.781 108.722C221.349 108.254 221.013 107.726 220.773 107.138C220.545 106.55 220.431 105.932 220.431 105.284C220.431 104.396 220.629 103.586 221.025 102.854C221.433 102.11 222.009 101.516 222.753 101.072C223.497 100.628 224.379 100.406 225.399 100.406C226.419 100.406 227.295 100.628 228.027 101.072C228.759 101.516 229.305 102.098 229.665 102.818L227.307 103.538C227.103 103.19 226.833 102.926 226.497 102.746C226.161 102.554 225.789 102.458 225.381 102.458C224.925 102.458 224.505 102.578 224.121 102.818C223.749 103.046 223.455 103.376 223.239 103.808C223.023 104.228 222.915 104.72 222.915 105.284C222.915 105.836 223.023 106.328 223.239 106.76C223.467 107.18 223.767 107.516 224.139 107.768C224.511 108.008 224.925 108.128 225.381 108.128C225.669 108.128 225.939 108.08 226.191 107.984C226.455 107.888 226.689 107.756 226.893 107.588C227.097 107.42 227.247 107.228 227.343 107.012L229.701 107.732C229.485 108.2 229.167 108.62 228.747 108.992C228.339 109.364 227.853 109.658 227.289 109.874C226.737 110.078 226.113 110.18 225.417 110.18ZM235.471 110.18C234.715 110.18 234.031 110.054 233.419 109.802C232.807 109.538 232.285 109.184 231.853 108.74C231.421 108.284 231.085 107.768 230.845 107.192C230.617 106.604 230.503 105.986 230.503 105.338C230.503 104.438 230.701 103.616 231.097 102.872C231.505 102.128 232.081 101.534 232.825 101.09C233.581 100.634 234.469 100.406 235.489 100.406C236.521 100.406 237.403 100.634 238.135 101.09C238.867 101.534 239.425 102.128 239.809 102.872C240.205 103.604 240.403 104.396 240.403 105.248C240.403 105.392 240.397 105.542 240.385 105.698C240.373 105.842 240.361 105.962 240.349 106.058H233.059C233.107 106.538 233.245 106.958 233.473 107.318C233.713 107.678 234.013 107.954 234.373 108.146C234.745 108.326 235.141 108.416 235.561 108.416C236.041 108.416 236.491 108.302 236.911 108.074C237.343 107.834 237.637 107.522 237.793 107.138L239.863 107.714C239.635 108.194 239.305 108.62 238.873 108.992C238.453 109.364 237.955 109.658 237.379 109.874C236.803 110.078 236.167 110.18 235.471 110.18ZM233.005 104.528H237.937C237.889 104.048 237.751 103.634 237.523 103.286C237.307 102.926 237.019 102.65 236.659 102.458C236.299 102.254 235.897 102.152 235.453 102.152C235.021 102.152 234.625 102.254 234.265 102.458C233.917 102.65 233.629 102.926 233.401 103.286C233.185 103.634 233.053 104.048 233.005 104.528Z" fill="black"/>
<path d="M70.5 79V78.5H70H35C26.4396 78.5 19.5 85.4396 19.5 94V113C19.5 121.56 26.4396 128.5 35 128.5H70H70.5V128V79Z" fill="#F2F2F2" stroke="#F2F2F2"/>
<path d="M44.1359 111.596C42.2328 109.333 38 103.848 38 100.768C38 97.0299 41.134 94 45 94C48.8646 94 52 97.0299 52 100.768C52 103.848 47.7344 109.333 45.8641 111.596C45.4156 112.135 44.5844 112.135 44.1359 111.596ZM45 103.023C46.287 103.023 47.3333 102.012 47.3333 100.768C47.3333 99.5233 46.287 98.5117 45 98.5117C43.713 98.5117 42.6667 99.5233 42.6667 100.768C42.6667 102.012 43.713 103.023 45 103.023Z" fill="black"/>
</svg>
