<svg width="22" height="18" viewBox="0 0 22 18" fill="none" xmlns="http://www.w3.org/2000/svg">
<path d="M21.352 1.68479C20.0187 1.09424 18.6842 0.869568 17.3505 0.869568C13.1166 0.869205 8.88305 3.1323 4.64915 3.1323C3.58732 3.1323 2.52618 2.99001 1.46435 2.63431C1.34507 2.59438 1.22545 2.57551 1.10858 2.57551C0.516992 2.57551 0 3.05898 0 3.7301V15.2456C0 15.704 0.248527 16.1384 0.647615 16.3149C1.981 16.9058 3.31542 17.1304 4.64915 17.1304C8.88305 17.1304 13.117 14.8673 17.3509 14.8673C18.4127 14.8673 19.4738 15.0096 20.5356 15.3653C20.6549 15.4053 20.7745 15.4241 20.8914 15.4241C21.483 15.4241 22 14.9407 22 14.2695V2.75445C21.9997 2.29566 21.7511 1.86155 21.352 1.68479ZM1.64997 4.50721C2.34159 4.69015 3.06345 4.78198 3.80594 4.83134C3.60382 5.8981 2.71558 6.70207 1.64997 6.70207V4.50721ZM1.64997 14.8517V13.1175C2.83142 13.1175 3.78738 14.1073 3.83997 15.3461C3.06551 15.2804 2.34159 15.1171 1.64997 14.8517ZM10.9998 12.4845C9.48082 12.4845 8.24987 10.9241 8.24987 9C8.24987 7.07556 9.48116 5.51553 10.9998 5.51553C12.5185 5.51553 13.7498 7.07556 13.7498 9C13.7498 10.9248 12.5181 12.4845 10.9998 12.4845ZM20.3497 13.4928C19.7474 13.3335 19.1222 13.2442 18.4825 13.1864C18.6842 12.2398 19.4278 11.5212 20.3497 11.3978V13.4928ZM20.3497 4.92281C19.2879 4.78089 18.4639 3.8448 18.4312 2.68875C19.1029 2.76752 19.7406 2.91488 20.3497 3.14827V4.92281Z" fill="#0065FC"/>
</svg>
